<svg xmlns="http://www.w3.org/2000/svg" width="340" height="340" viewBox="0 0 340 340">
  <g fill="none" fill-rule="evenodd">
    <path fill="#FFF" fill-rule="nonzero" d="M170,0 C263.888407,0 340,76.1115925 340,170 C340,263.888407 263.888407,340 170,340 C76.1115925,340 0,263.888407 0,170 C0,76.1115925 76.1115925,0 170,0 Z M170,17 C85.5004333,17 17,85.5004333 17,170 C17,254.499567 85.5004333,323 170,323 C254.499567,323 323,254.499567 323,170 C323,85.5004333 254.499567,17 170,17 Z"/>
    <path fill="#000" d="M170.622711,52.3076923 L189.304029,168.131868 L170.622711,288.937729 L151.941392,168.131868 L170.622711,52.3076923 Z"/>
    <path fill="#000" d="M170.622711,52.3076923 L189.304029,168.131868 L170.622711,288.937729 L151.941392,168.131868 L170.622711,52.3076923 Z" transform="matrix(0 -1 1 0 0 341.245)"/>
    <path fill="#FFF" d="M170.622711,44.8351648 L185.793165,138.583165 L230.40293,110.842491 L202.279165,156.018165 L296.410256,170.622711 L201.927165,185.281165 L230.40293,230.40293 L185.392165,201.213165 L170.622711,296.410256 L155.852165,201.212165 L110.842491,230.40293 L138.956165,185.853165 L44.8351648,170.622711 L138.610165,155.447165 L110.842491,110.842491 L155.451165,138.583165 L170.622711,44.8351648 Z"/>
    <circle cx="250.33" cy="92.161" r="13.7" fill="red"/>
  </g>
</svg>
