<svg xmlns="http://www.w3.org/2000/svg" width="340" height="340" viewBox="0 0 340 340">
  <g fill="none" fill-rule="evenodd">
    <circle cx="170" cy="170" r="161.5" fill="#FFF" stroke="#000" stroke-width="17"/>
    <path fill="#000" d="M170.622711,52.3076923 L189.304029,168.131868 L170.622711,288.937729 L151.941392,168.131868 L170.622711,52.3076923 Z"/>
    <path fill="#000" d="M170.622711,52.3076923 L189.304029,168.131868 L170.622711,288.937729 L151.941392,168.131868 L170.622711,52.3076923 Z" transform="matrix(0 -1 1 0 0 341.245)"/>
    <path fill="#000" d="M170.622711,44.8351648 L188.262165,153.843165 L296.410256,170.622711 L187.517165,187.517165 L170.622711,296.410256 L153.843165,188.262165 L44.8351648,170.622711 L153.102165,153.102165 L170.622711,44.8351648 Z"/>
    <polygon fill="#000" points="230.403 110.842 192.933 171.03 230.403 230.403 170.623 191.635 110.842 230.403 148.312 171.03 110.842 110.842 170.623 148.018"/>
    <circle cx="250.33" cy="92.161" r="13.7" fill="red"/>
  </g>
</svg>
